HIERARCHY
ROOT Hips
{
  OFFSET 0.000000 0.000000 0.000000
  CHANNELS 6 Xposition Yposition Zposition Xrotation Yrotation Zrotation
  JOINT Spine
  {
    OFFSET 0.000000 10.000000 0.000000
    CHANNELS 3 Xrotation Yrotation Zrotation
    JOINT Chest
    {
      OFFSET 0.000000 15.000000 0.000000
      CHANNELS 3 Xrotation Yrotation Zrotation
      JOINT Neck
      {
        OFFSET 0.000000 15.000000 0.000000
        CHANNELS 3 Xrotation Yrotation Zrotation
        JOINT Head
        {
          OFFSET 0.000000 10.000000 0.000000
          CHANNELS 3 Xrotation Yrotation Zrotation
          End Site
          {
            OFFSET 0.0 5.0 2.0
          }
        }
      }
      JOINT LeftShoulder
      {
        OFFSET 20.000000 5.000000 0.000000
        CHANNELS 3 Xrotation Yrotation Zrotation
        JOINT LeftArm
        {
          OFFSET 15.000000 0.000000 0.000000
          CHANNELS 3 Xrotation Yrotation Zrotation
          JOINT LeftForeArm
          {
            OFFSET 25.000000 0.000000 0.000000
            CHANNELS 3 Xrotation Yrotation Zrotation
            JOINT LeftHand
            {
              OFFSET 20.000000 0.000000 0.000000
              CHANNELS 3 Xrotation Yrotation Zrotation
              End Site
              {
                OFFSET -3.0 0.0 2.0
              }
            }
          }
        }
      }
      JOINT RightShoulder
      {
        OFFSET -20.000000 5.000000 0.000000
        CHANNELS 3 Xrotation Yrotation Zrotation
        JOINT RightArm
        {
          OFFSET -15.000000 0.000000 0.000000
          CHANNELS 3 Xrotation Yrotation Zrotation
          JOINT RightForeArm
          {
            OFFSET -25.000000 0.000000 0.000000
            CHANNELS 3 Xrotation Yrotation Zrotation
            JOINT RightHand
            {
              OFFSET -20.000000 0.000000 0.000000
              CHANNELS 3 Xrotation Yrotation Zrotation
              End Site
              {
                OFFSET 3.0 0.0 2.0
              }
            }
          }
        }
      }
    }
  }
  JOINT LeftUpLeg
  {
    OFFSET 10.000000 -10.000000 0.000000
    CHANNELS 3 Xrotation Yrotation Zrotation
    JOINT LeftLeg
    {
      OFFSET 0.000000 -45.000000 0.000000
      CHANNELS 3 Xrotation Yrotation Zrotation
      JOINT LeftFoot
      {
        OFFSET 0.000000 -45.000000 0.000000
        CHANNELS 3 Xrotation Yrotation Zrotation
        JOINT LeftToeBase
        {
          OFFSET 0.000000 0.000000 10.000000
          CHANNELS 3 Xrotation Yrotation Zrotation
          End Site
          {
            OFFSET 0.0 -1.0 3.0
          }
        }
      }
    }
  }
  JOINT RightUpLeg
  {
    OFFSET -10.000000 -10.000000 0.000000
    CHANNELS 3 Xrotation Yrotation Zrotation
    JOINT RightLeg
    {
      OFFSET 0.000000 -45.000000 0.000000
      CHANNELS 3 Xrotation Yrotation Zrotation
      JOINT RightFoot
      {
        OFFSET 0.000000 -45.000000 0.000000
        CHANNELS 3 Xrotation Yrotation Zrotation
        JOINT RightToeBase
        {
          OFFSET 0.000000 0.000000 10.000000
          CHANNELS 3 Xrotation Yrotation Zrotation
          End Site
          {
            OFFSET 0.0 -1.0 3.0
          }
        }
      }
    }
  }
}
MOTION
Frames: 14
Frame Time: 0.033333
3.881071 0.413694 -0.710824 32.951250 23.885808 -73.649983 -34.988116 -26.177083 -72.836289 -34.988116 -26.177083 -72.836289 -87.095118 -20.452071 -21.491985 4.388125 -3.990196 84.375558 29.441619 -46.750205 -62.576281 40.559841 -50.046762 -76.741452 17.048157 -10.229033 -118.396310 17.048157 -10.229033 -118.396310 19.284351 28.645686 67.296470 15.721701 23.308855 67.558746 -104.139708 -30.974693 155.821667 -104.139708 -30.974693 155.821667 17.130467 -1.288399 8.159580 -10.449851 -0.009289 -0.426239 37.014460 -0.451324 -0.149837 15.770977 13.542290 2.088110 -10.361873 -0.402512 -4.180382 -31.850348 -0.162425 -0.580793 44.366125 -38.600987 -16.395365 28.906282 -47.861380 -13.370656
4.585771 0.426089 5.061195 38.179823 26.308523 -69.620520 -34.469640 -25.968310 -73.259308 -34.469640 -25.968310 -73.259308 -87.087314 -20.551698 -21.599578 3.579279 -3.233332 83.901093 30.095578 -47.775693 -62.521019 40.563624 -50.674874 -75.943102 18.995798 -11.358316 -118.588780 18.995798 -11.358316 -118.588780 19.655609 29.335139 66.991512 17.057435 25.078618 67.933084 -97.779626 -28.402005 155.281468 -97.779626 -28.402005 155.281468 12.689571 -0.870813 7.484631 -14.123532 0.045796 -0.067578 45.023268 -0.197580 -0.285695 23.118017 15.168100 3.135445 -10.726459 -0.514000 -5.494320 -32.794763 -0.093309 -0.317824 48.954875 -39.507766 -18.680074 35.175623 -49.786692 -16.982282
5.491303 0.433376 12.417468 39.513322 27.142137 -68.710599 -33.730974 -25.664660 -73.858450 -33.730974 -25.664660 -73.858450 -86.956422 -20.685697 -21.789322 2.661372 -2.379538 83.338697 30.385445 -48.299708 -62.406150 40.239056 -50.645240 -75.494513 20.255585 -12.015533 -118.986212 20.255585 -12.015533 -118.986212 20.038367 29.769186 67.209869 18.393358 26.618438 68.679255 -93.666644 -26.108467 155.576910 -93.666644 -26.108467 155.576910 10.422199 -0.635869 6.844721 -17.536573 0.128025 0.582752 52.355665 -0.919679 -0.614932 29.804824 15.487484 4.099783 -8.905540 -0.479063 -6.452279 -33.245951 -0.026750 -0.094607 54.049620 -40.793892 -21.724109 41.826119 -52.237923 -21.700742
6.248040 0.437289 18.508500 36.870899 26.288318 -70.963922 -33.058553 -25.385054 -74.402069 -33.058553 -25.385054 -74.402069 -86.834985 -20.777354 -21.931034 2.069784 -1.831551 82.877191 30.563898 -48.516937 -62.460431 39.771069 -50.098688 -75.483721 19.902073 -11.695188 -119.789711 19.902073 -11.695188 -119.789711 20.112954 29.617654 67.708765 19.015036 26.942216 69.930638 -94.239335 -25.363904 156.470730 -94.239335 -25.363904 156.470730 10.120389 -0.549469 6.268704 -19.673796 0.183068 1.029022 57.060078 -1.325474 -0.730917 33.989353 15.819290 4.861454 -5.646132 -0.320839 -7.343949 -33.904113 -0.030292 -0.096150 60.420644 -42.428405 -25.959598 50.480159 -55.261934 -28.717036
6.726013 0.436075 22.292376 31.528982 24.332103 -75.393849 -32.635149 -25.205252 -74.742268 -32.635149 -25.205252 -74.742268 -86.727517 -20.853733 -22.051575 1.799348 -1.581269 82.568070 30.472803 -48.130871 -62.765131 39.046346 -48.761943 -76.108768 16.445851 -9.543634 -121.603551 16.445851 -9.543634 -121.603551 19.697846 28.739151 68.263358 18.823128 25.929582 71.689626 -99.415045 -26.377574 157.739440 -99.415045 -26.377574 157.739440 11.064493 -0.561807 5.841099 -19.993071 0.192949 1.076445 58.141356 -0.672086 -0.388084 34.449644 17.030044 5.288728 -0.751124 0.010395 -8.233452 -34.338760 -0.175793 -0.581272 64.640509 -43.988631 -29.128419 55.896324 -57.751983 -33.575975
6.986820 0.431513 24.346163 27.704317 22.618318 -78.395508 -32.490711 -25.143457 -74.858068 -32.490711 -25.143457 -74.858068 -86.691385 -20.860206 -22.071800 1.770949 -1.552354 82.453033 30.122521 -47.275957 -63.177249 38.284572 -47.060384 -77.171285 11.194343 -6.331913 -124.227645 11.194343 -6.331913 -124.227645 18.961230 27.415445 68.814633 18.160911 24.211883 73.610578 -106.712299 -28.235313 159.071919 -106.712299 -28.235313 159.071919 11.732052 -0.562386 5.488782 -20.100019 0.170961 0.948641 58.802869 -0.018968 -0.039020 34.613832 18.174906 5.661812 5.116991 0.500159 -9.224636 -34.448234 -0.464746 -1.541906 66.449646 -45.310992 -30.857116 57.990116 -59.302333 -35.709091
7.142186 0.426551 25.602781 25.186359 21.280992 -80.244141 -32.526309 -25.159602 -74.830061 -32.526309 -25.159602 -74.830061 -86.696921 -20.792780 -21.998455 1.997249 -1.756833 82.575393 29.538400 -46.140537 -63.515136 37.738118 -45.510063 -78.388603 6.289332 -3.385225 -127.115687 6.289332 -3.385225 -127.115687 18.284995 26.146661 69.460694 17.632995 22.788630 75.262862 -113.856408 -30.024692 160.329454 -113.856408 -30.024692 160.329454 11.971641 -0.539712 5.137974 -19.841816 0.147225 0.835228 58.600471 0.136072 0.052217 34.373236 18.403816 5.701177 10.535193 1.016158 -10.177504 -33.881691 -0.816924 -2.743184 64.714348 -46.062605 -30.322593 55.123808 -59.461676 -33.785459
7.255858 0.422997 26.552127 23.546462 20.289355 -81.364565 -32.809469 -25.282172 -74.603881 -32.809469 -25.282172 -74.603881 -86.773869 -20.571762 -21.736977 2.644911 -2.349616 82.960668 28.885783 -45.073356 -63.649734 37.620382 -44.437355 -79.661332 2.882491 -1.411934 -129.805397 2.882491 -1.411934 -129.805397 17.678398 24.960931 70.212624 17.176311 21.724892 76.388073 -120.779389 -31.487140 161.782124 -120.779389 -31.487140 161.782124 11.917284 -0.501685 4.791337 -19.555989 0.125665 0.729584 58.454547 -0.369046 -0.223101 34.517709 17.667378 5.498856 13.939130 1.385383 -10.993859 -32.939686 -1.163614 -3.985428 60.302591 -46.030150 -27.873111 48.924219 -58.307136 -28.952616
7.456209 0.421372 28.206580 22.305840 19.494718 -82.178033 -33.194755 -25.445494 -74.294133 -33.194755 -25.445494 -74.294133 -86.899459 -20.225869 -21.328623 3.482822 -3.124459 83.480271 28.282219 -44.189016 -63.647254 37.951890 -43.856859 -80.998480 1.213628 -0.566038 -131.915095 1.213628 -0.566038 -131.915095 17.027417 23.664208 71.172393 16.736653 20.946371 77.017636 -127.737570 -32.386099 163.829778 -127.737570 -32.386099 163.829778 11.865688 -0.470527 4.518168 -19.174248 0.116830 0.686482 58.755865 -1.453991 -0.829617 34.992220 16.313963 5.159297 15.789996 1.609004 -11.527277 -31.826482 -1.470531 -5.225098 55.463818 -45.222200 -24.792913 42.197639 -56.280617 -23.482282
7.707124 0.419788 30.278076 21.400934 18.887286 -82.748664 -33.804225 -25.697216 -73.800429 -33.804225 -25.697216 -73.800429 -87.098451 -19.792710 -20.802899 4.457268 -4.025269 83.978458 27.741740 -43.377999 -63.668607 38.008923 -42.912598 -82.504141 -1.458815 0.544234 -133.487277 -1.458815 0.544234 -133.487277 16.124048 22.014646 72.247710 15.109347 18.841402 77.269572 -136.584400 -34.151967 166.276014 -136.584400 -34.151967 166.276014 11.965624 -0.457975 4.367044 -18.334202 0.102709 0.628932 58.787328 -2.608738 -1.469380 34.682935 15.175157 4.772212 16.279085 1.729780 -12.030210 -30.427450 -1.743285 -6.542201 51.592528 -44.108533 -22.339759 37.470640 -54.405999 -20.063062
7.946603 0.416734 32.290749 20.717489 18.425574 -83.177101 -34.651688 -26.033907 -73.106583 -34.651688 -26.033907 -73.106583 -87.305183 -19.386727 -20.304498 5.289001 -4.789593 84.269618 26.273403 -41.144817 -63.707705 35.382247 -39.029695 -84.285269 -9.339604 3.641418 -135.154258 -9.339604 3.641418 -135.154258 14.980116 20.067429 73.378956 13.006277 16.224810 77.280760 -145.536514 -36.735302 168.531866 -145.536514 -36.735302 168.531866 12.250658 -0.465196 4.330357 -17.206056 0.094030 0.617999 58.202938 -3.462555 -1.931666 33.057995 14.667933 4.374242 16.195899 1.816609 -12.660227 -28.679534 -2.004476 -7.983343 47.292244 -43.254676 -19.844616 32.118992 -53.178745 -16.619760
8.248977 0.411407 34.577682 20.701377 18.412478 -83.185235 -35.602840 -26.401120 -72.322005 -35.602840 -26.401120 -72.322005 -87.438988 -19.094724 -19.951558 5.537886 -5.012207 84.260367 23.537374 -36.946153 -63.771093 29.645923 -31.926089 -86.299262 -21.571833 8.332675 -136.985727 -21.571833 8.332675 -136.985727 13.723807 17.987880 74.680652 10.596213 13.279537 76.967070 -152.786830 -40.131933 170.131834 -152.786830 -40.131933 170.131834 12.531820 -0.486786 4.429701 -16.134700 0.092100 0.659860 56.639989 -3.678066 -2.014757 30.221619 14.827895 4.000434 16.237023 1.956514 -13.609874 -26.973580 -2.216631 -9.351292 43.456214 -42.663887 -17.760632 27.491941 -52.421676 -13.828669
8.752074 0.405309 38.038244 21.470429 18.920658 -82.693535 -36.411479 -26.703586 -71.649670 -36.411479 -26.703586 -71.649670 -87.327795 -19.000535 -19.891588 5.038508 -4.541263 83.851605 19.590452 -30.849446 -63.867309 22.204876 -23.302756 -88.275304 -35.221768 13.345219 -139.026922 -35.221768 13.345219 -139.026922 12.312864 15.759620 76.185607 7.220955 9.047946 76.259978 -157.640825 -44.142415 171.026474 -157.640825 -44.142415 171.026474 12.660678 -0.514992 4.638906 -14.730700 0.098699 0.792889 53.492599 -2.638084 -1.508187 26.217546 15.942580 3.612181 17.311411 2.268797 -14.732190 -25.096285 -2.325883 -10.532613 39.446055 -42.373084 -15.848362 22.527846 -52.020258 -11.126094
9.415889 0.398975 42.367442 23.074598 19.937514 -81.634193 -36.947525 -26.901552 -71.202605 -36.947525 -26.901552 -71.202605 -87.020870 -19.025527 -20.023899 4.119904 -3.683371 83.138737 15.401882 -24.357758 -63.966508 15.655737 -15.896872 -90.050963 -46.841719 17.267020 -141.147931 -46.841719 17.267020 -141.147931 10.719970 13.384549 77.763776 3.467508 4.278252 75.226138 -161.039207 -48.287257 171.631706 -161.039207 -48.287257 171.631706 12.732992 -0.559668 5.010640 -12.706588 0.103102 1.004049 49.038402 -0.148477 -0.359856 21.484045 18.146275 3.290030 18.509989 2.605349 -15.781075 -23.205542 -2.334865 -11.431221 35.581116 -42.215537 -14.191542 17.705961 -51.816704 -8.754219
